<?xml version="1.0" encoding="UTF-8" standalone="no"?>
<!DOCTYPE svg PUBLIC "-//W3C//DTD SVG 1.1//EN"
 "http://www.w3.org/Graphics/SVG/1.1/DTD/svg11.dtd">
<!-- Generated by graphviz version 2.40.1 (20161225.0304)
 -->
<!-- Title: models_diagram Pages: 1 -->
<svg width="2114pt" height="1108pt"
 viewBox="0.00 0.00 2114.00 1108.00" xmlns="http://www.w3.org/2000/svg" xmlns:xlink="http://www.w3.org/1999/xlink">
<g id="graph0" class="graph" transform="scale(1 1) rotate(0) translate(36 1072)">
<title>models_diagram</title>
<polygon fill="#ffffff" stroke="transparent" points="-36,36 -36,-1072 2078,-1072 2078,36 -36,36"/>
<!-- Booking -->
<g id="node1" class="node">
<title>Booking</title>
<polygon fill="#add8e6" stroke="transparent" points="846.5,-562 846.5,-584 980.5,-584 980.5,-562 846.5,-562"/>
<polygon fill="none" stroke="#000000" points="846.5,-562 846.5,-584 980.5,-584 980.5,-562 846.5,-562"/>
<text text-anchor="start" x="896.276" y="-571" font-family="Times,serif" font-weight="bold" font-size="10.00" fill="#000000">Booking</text>
<polygon fill="none" stroke="#000000" points="846.5,-540 846.5,-562 980.5,-562 980.5,-540 846.5,-540"/>
<text text-anchor="start" x="851.5" y="-549" font-family="Times,serif" text-decoration="underline" font-size="10.00" fill="#000000">id</text>
<text text-anchor="start" x="859.279" y="-549" font-family="Times,serif" font-size="10.00" fill="#000000">: NUMBER</text>
<polygon fill="none" stroke="#000000" points="846.5,-518 846.5,-540 980.5,-540 980.5,-518 846.5,-518"/>
<text text-anchor="start" x="851.5" y="-526" font-family="Times,serif" font-size="10.00" fill="#000000">createdAt: DATE</text>
<polygon fill="none" stroke="#000000" points="846.5,-496 846.5,-518 980.5,-518 980.5,-496 846.5,-496"/>
<text text-anchor="start" x="851.5" y="-504" font-family="Times,serif" font-size="10.00" fill="#000000">updatedAt: DATE</text>
<polygon fill="none" stroke="#000000" points="846.5,-474 846.5,-496 980.5,-496 980.5,-474 846.5,-474"/>
<text text-anchor="start" x="851.5" y="-483" font-family="Times,serif" font-style="italic" text-decoration="underline" font-size="10.00" fill="#000000">UserId</text>
<text text-anchor="start" x="878.705" y="-483" font-family="Times,serif" font-size="10.00" fill="#000000">: NUMBER</text>
<polygon fill="none" stroke="#000000" points="846.5,-452 846.5,-474 980.5,-474 980.5,-452 846.5,-452"/>
<text text-anchor="start" x="851.4295" y="-460" font-family="Times,serif" font-size="10.00" fill="#000000">ShowtimeScreenId: NUMBER</text>
</g>
<!-- Showtime -->
<g id="node5" class="node">
<title>Showtime</title>
<polygon fill="#add8e6" stroke="transparent" points="1739.5,-573 1739.5,-595 1832.5,-595 1832.5,-573 1739.5,-573"/>
<polygon fill="none" stroke="#000000" points="1739.5,-573 1739.5,-595 1832.5,-595 1832.5,-573 1739.5,-573"/>
<text text-anchor="start" x="1765.723" y="-582" font-family="Times,serif" font-weight="bold" font-size="10.00" fill="#000000">Showtime</text>
<polygon fill="none" stroke="#000000" points="1739.5,-551 1739.5,-573 1832.5,-573 1832.5,-551 1739.5,-551"/>
<text text-anchor="start" x="1744.5" y="-559" font-family="Times,serif" font-size="10.00" fill="#000000">time: TIME</text>
<polygon fill="none" stroke="#000000" points="1739.5,-529 1739.5,-551 1832.5,-551 1832.5,-529 1739.5,-529"/>
<text text-anchor="start" x="1744.5" y="-537" font-family="Times,serif" font-size="10.00" fill="#000000">date: DATEONLY</text>
<polygon fill="none" stroke="#000000" points="1739.5,-507 1739.5,-529 1832.5,-529 1832.5,-507 1739.5,-507"/>
<text text-anchor="start" x="1744.5" y="-515" font-family="Times,serif" font-size="10.00" fill="#000000">createdAt: DATE</text>
<polygon fill="none" stroke="#000000" points="1739.5,-485 1739.5,-507 1832.5,-507 1832.5,-485 1739.5,-485"/>
<text text-anchor="start" x="1744.5" y="-493" font-family="Times,serif" font-size="10.00" fill="#000000">updatedAt: DATE</text>
<polygon fill="none" stroke="#000000" points="1739.5,-463 1739.5,-485 1832.5,-485 1832.5,-463 1739.5,-463"/>
<text text-anchor="start" x="1744.2065" y="-472" font-family="Times,serif" text-decoration="underline" font-size="10.00" fill="#000000">ScreenId</text>
<text text-anchor="start" x="1779.7405" y="-472" font-family="Times,serif" font-size="10.00" fill="#000000">: NUMBER</text>
<polygon fill="none" stroke="#000000" points="1739.5,-441 1739.5,-463 1832.5,-463 1832.5,-441 1739.5,-441"/>
<text text-anchor="start" x="1744.5" y="-450" font-family="Times,serif" text-decoration="underline" font-size="10.00" fill="#000000">MovieId</text>
<text text-anchor="start" x="1778.936" y="-450" font-family="Times,serif" font-size="10.00" fill="#000000">: NUMBER</text>
</g>
<!-- Booking&#45;&gt;Showtime -->
<g id="edge4" class="edge">
<title>Booking&#45;&gt;Showtime</title>
<path fill="none" stroke="#000000" stroke-width=".75" d="M986.9247,-518C1161.1639,-518 1595.7119,-518 1738.9141,-518"/>
<polygon fill="#000000" stroke="#000000" stroke-width=".75" points="986.8372,-518.0001 980.8373,-515.3 983.8372,-518 980.8372,-518 980.8372,-518 980.8372,-518 983.8372,-518 980.8372,-520.7 986.8372,-518.0001 986.8372,-518.0001"/>
</g>
<!-- User -->
<g id="node7" class="node">
<title>User</title>
<polygon fill="#add8e6" stroke="transparent" points=".5,-562 .5,-584 83.5,-584 83.5,-562 .5,-562"/>
<polygon fill="none" stroke="#000000" points=".5,-562 .5,-584 83.5,-584 83.5,-562 .5,-562"/>
<text text-anchor="start" x="32.562" y="-571" font-family="Times,serif" font-weight="bold" font-size="10.00" fill="#000000">User</text>
<polygon fill="none" stroke="#000000" points=".5,-540 .5,-562 83.5,-562 83.5,-540 .5,-540"/>
<text text-anchor="start" x="5.5" y="-549" font-family="Times,serif" text-decoration="underline" font-size="10.00" fill="#000000">id</text>
<text text-anchor="start" x="13.279" y="-549" font-family="Times,serif" font-size="10.00" fill="#000000">: NUMBER</text>
<polygon fill="none" stroke="#000000" points=".5,-518 .5,-540 83.5,-540 83.5,-518 .5,-518"/>
<text text-anchor="start" x="5.5" y="-526" font-family="Times,serif" font-size="10.00" fill="#000000">email: STRING</text>
<polygon fill="none" stroke="#000000" points=".5,-496 .5,-518 83.5,-518 83.5,-496 .5,-496"/>
<text text-anchor="start" x="5.5" y="-504" font-family="Times,serif" font-size="10.00" fill="#000000">name: STRING</text>
<polygon fill="none" stroke="#000000" points=".5,-474 .5,-496 83.5,-496 83.5,-474 .5,-474"/>
<text text-anchor="start" x="5.5" y="-482" font-family="Times,serif" font-size="10.00" fill="#000000">createdAt: DATE</text>
<polygon fill="none" stroke="#000000" points=".5,-452 .5,-474 83.5,-474 83.5,-452 .5,-452"/>
<text text-anchor="start" x="5.205" y="-460" font-family="Times,serif" font-size="10.00" fill="#000000">updatedAt: DATE</text>
</g>
<!-- Booking&#45;&gt;User -->
<g id="edge3" class="edge">
<title>Booking&#45;&gt;User</title>
<path fill="none" stroke="#000000" stroke-width=".75" d="M840.0024,-518C663.6424,-518 220.8986,-518 83.1023,-518"/>
<polygon fill="#000000" stroke="#000000" stroke-width=".75" points="840.1628,-518.0001 846.1628,-520.7 843.1628,-518 846.1628,-518 846.1628,-518 846.1628,-518 843.1628,-518 846.1627,-515.3 840.1628,-518.0001 840.1628,-518.0001"/>
</g>
<!-- Movie -->
<g id="node2" class="node">
<title>Movie</title>
<polygon fill="#add8e6" stroke="transparent" points="1742.5,-132 1742.5,-154 1829.5,-154 1829.5,-132 1742.5,-132"/>
<polygon fill="none" stroke="#000000" points="1742.5,-132 1742.5,-154 1829.5,-154 1829.5,-132 1742.5,-132"/>
<text text-anchor="start" x="1772.9465" y="-141" font-family="Times,serif" font-weight="bold" font-size="10.00" fill="#000000">Movie</text>
<polygon fill="none" stroke="#000000" points="1742.5,-110 1742.5,-132 1829.5,-132 1829.5,-110 1742.5,-110"/>
<text text-anchor="start" x="1747.5" y="-119" font-family="Times,serif" text-decoration="underline" font-size="10.00" fill="#000000">id</text>
<text text-anchor="start" x="1755.279" y="-119" font-family="Times,serif" font-size="10.00" fill="#000000">: NUMBER</text>
<polygon fill="none" stroke="#000000" points="1742.5,-88 1742.5,-110 1829.5,-110 1829.5,-88 1742.5,-88"/>
<text text-anchor="start" x="1747.5" y="-96" font-family="Times,serif" font-size="10.00" fill="#000000">title: STRING</text>
<polygon fill="none" stroke="#000000" points="1742.5,-66 1742.5,-88 1829.5,-88 1829.5,-66 1742.5,-66"/>
<text text-anchor="start" x="1747.2605" y="-74" font-family="Times,serif" font-size="10.00" fill="#000000">language: STRING</text>
<polygon fill="none" stroke="#000000" points="1742.5,-44 1742.5,-66 1829.5,-66 1829.5,-44 1742.5,-44"/>
<text text-anchor="start" x="1747.5" y="-52" font-family="Times,serif" font-size="10.00" fill="#000000">format: STRING</text>
<polygon fill="none" stroke="#000000" points="1742.5,-22 1742.5,-44 1829.5,-44 1829.5,-22 1742.5,-22"/>
<text text-anchor="start" x="1747.5" y="-30" font-family="Times,serif" font-size="10.00" fill="#000000">createdAt: DATE</text>
<polygon fill="none" stroke="#000000" points="1742.5,0 1742.5,-22 1829.5,-22 1829.5,0 1742.5,0"/>
<text text-anchor="start" x="1747.5" y="-8" font-family="Times,serif" font-size="10.00" fill="#000000">updatedAt: DATE</text>
</g>
<!-- Movie&#45;&gt;Showtime -->
<g id="edge1" class="edge">
<title>Movie&#45;&gt;Showtime</title>
<path fill="none" stroke="#000000" stroke-width=".75" d="M1785.5,-154.0685C1785.5,-232.5146 1785.5,-353.7454 1785.5,-434.4523"/>
<polygon fill="#000000" stroke="#000000" stroke-width=".75" points="1785.5001,-434.6761 1782.8,-440.676 1785.5,-437.6761 1785.5,-440.6761 1785.5,-440.6761 1785.5,-440.6761 1785.5,-437.6761 1788.2,-440.6761 1785.5001,-434.6761 1785.5001,-434.6761"/>
</g>
<!-- Screen -->
<g id="node3" class="node">
<title>Screen</title>
<polygon fill="#add8e6" stroke="transparent" points="1737.5,-1003 1737.5,-1025 1833.5,-1025 1833.5,-1003 1737.5,-1003"/>
<polygon fill="none" stroke="#000000" points="1737.5,-1003 1737.5,-1025 1833.5,-1025 1833.5,-1003 1737.5,-1003"/>
<text text-anchor="start" x="1771.8975" y="-1012" font-family="Times,serif" font-weight="bold" font-size="10.00" fill="#000000">Screen</text>
<polygon fill="none" stroke="#000000" points="1737.5,-981 1737.5,-1003 1833.5,-1003 1833.5,-981 1737.5,-981"/>
<text text-anchor="start" x="1742.5" y="-990" font-family="Times,serif" text-decoration="underline" font-size="10.00" fill="#000000">id</text>
<text text-anchor="start" x="1750.279" y="-990" font-family="Times,serif" font-size="10.00" fill="#000000">: NUMBER</text>
<polygon fill="none" stroke="#000000" points="1737.5,-959 1737.5,-981 1833.5,-981 1833.5,-959 1737.5,-959"/>
<text text-anchor="start" x="1742.5" y="-967" font-family="Times,serif" font-size="10.00" fill="#000000">name: STRING</text>
<polygon fill="none" stroke="#000000" points="1737.5,-937 1737.5,-959 1833.5,-959 1833.5,-937 1737.5,-937"/>
<text text-anchor="start" x="1742.5" y="-945" font-family="Times,serif" font-size="10.00" fill="#000000">createdAt: DATE</text>
<polygon fill="none" stroke="#000000" points="1737.5,-915 1737.5,-937 1833.5,-937 1833.5,-915 1737.5,-915"/>
<text text-anchor="start" x="1742.5" y="-923" font-family="Times,serif" font-size="10.00" fill="#000000">updatedAt: DATE</text>
<polygon fill="none" stroke="#000000" points="1737.5,-893 1737.5,-915 1833.5,-915 1833.5,-893 1737.5,-893"/>
<text text-anchor="start" x="1742.042" y="-902" font-family="Times,serif" font-style="italic" text-decoration="underline" font-size="10.00" fill="#000000">TheatreId</text>
<text text-anchor="start" x="1780.905" y="-902" font-family="Times,serif" font-size="10.00" fill="#000000">: NUMBER</text>
</g>
<!-- Screen&#45;&gt;Showtime -->
<g id="edge2" class="edge">
<title>Screen&#45;&gt;Showtime</title>
<path fill="none" stroke="#000000" stroke-width=".75" d="M1785.5,-892.9778C1785.5,-815.1913 1785.5,-685.8607 1785.5,-601.2652"/>
<polygon fill="#000000" stroke="#000000" stroke-width=".75" points="1785.5001,-601.2529 1788.2,-595.2529 1785.5,-598.2529 1785.5,-595.2529 1785.5,-595.2529 1785.5,-595.2529 1785.5,-598.2529 1782.8,-595.2529 1785.5001,-601.2529 1785.5001,-601.2529"/>
</g>
<!-- Theatre -->
<g id="node6" class="node">
<title>Theatre</title>
<polygon fill="#add8e6" stroke="transparent" points="1959.5,-992 1959.5,-1014 2042.5,-1014 2042.5,-992 1959.5,-992"/>
<polygon fill="none" stroke="#000000" points="1959.5,-992 1959.5,-1014 2042.5,-1014 2042.5,-992 1959.5,-992"/>
<text text-anchor="start" x="1985.733" y="-1001" font-family="Times,serif" font-weight="bold" font-size="10.00" fill="#000000">Theatre</text>
<polygon fill="none" stroke="#000000" points="1959.5,-970 1959.5,-992 2042.5,-992 2042.5,-970 1959.5,-970"/>
<text text-anchor="start" x="1964.5" y="-979" font-family="Times,serif" text-decoration="underline" font-size="10.00" fill="#000000">id</text>
<text text-anchor="start" x="1972.279" y="-979" font-family="Times,serif" font-size="10.00" fill="#000000">: NUMBER</text>
<polygon fill="none" stroke="#000000" points="1959.5,-948 1959.5,-970 2042.5,-970 2042.5,-948 1959.5,-948"/>
<text text-anchor="start" x="1964.5" y="-956" font-family="Times,serif" font-size="10.00" fill="#000000">name: STRING</text>
<polygon fill="none" stroke="#000000" points="1959.5,-926 1959.5,-948 2042.5,-948 2042.5,-926 1959.5,-926"/>
<text text-anchor="start" x="1964.5" y="-934" font-family="Times,serif" font-size="10.00" fill="#000000">createdAt: DATE</text>
<polygon fill="none" stroke="#000000" points="1959.5,-904 1959.5,-926 2042.5,-926 2042.5,-904 1959.5,-904"/>
<text text-anchor="start" x="1964.205" y="-912" font-family="Times,serif" font-size="10.00" fill="#000000">updatedAt: DATE</text>
</g>
<!-- Screen&#45;&gt;Theatre -->
<g id="edge5" class="edge">
<title>Screen&#45;&gt;Theatre</title>
<path fill="none" stroke="#000000" stroke-width=".75" d="M1840.0466,-959C1876.9978,-959 1925.0751,-959 1958.9344,-959"/>
<polygon fill="#000000" stroke="#000000" stroke-width=".75" points="1839.7502,-959.0001 1833.7502,-956.3 1836.7502,-959 1833.7502,-959 1833.7502,-959 1833.7502,-959 1836.7502,-959 1833.7502,-961.7 1839.7502,-959.0001 1839.7502,-959.0001"/>
</g>
<!-- Seat -->
<g id="node4" class="node">
<title>Seat</title>
<polygon fill="#add8e6" stroke="transparent" points="1524.5,-1014 1524.5,-1036 1617.5,-1036 1617.5,-1014 1524.5,-1014"/>
<polygon fill="none" stroke="#000000" points="1524.5,-1014 1524.5,-1036 1617.5,-1036 1617.5,-1014 1524.5,-1014"/>
<text text-anchor="start" x="1562.392" y="-1023" font-family="Times,serif" font-weight="bold" font-size="10.00" fill="#000000">Seat</text>
<polygon fill="none" stroke="#000000" points="1524.5,-992 1524.5,-1014 1617.5,-1014 1617.5,-992 1524.5,-992"/>
<text text-anchor="start" x="1529.5" y="-1001" font-family="Times,serif" text-decoration="underline" font-size="10.00" fill="#000000">id</text>
<text text-anchor="start" x="1537.279" y="-1001" font-family="Times,serif" font-size="10.00" fill="#000000">: NUMBER</text>
<polygon fill="none" stroke="#000000" points="1524.5,-970 1524.5,-992 1617.5,-992 1617.5,-970 1524.5,-970"/>
<text text-anchor="start" x="1529.5" y="-978" font-family="Times,serif" font-size="10.00" fill="#000000">number: NUMBER</text>
<polygon fill="none" stroke="#000000" points="1524.5,-948 1524.5,-970 1617.5,-970 1617.5,-948 1524.5,-948"/>
<text text-anchor="start" x="1529.5" y="-956" font-family="Times,serif" font-size="10.00" fill="#000000">row: STRING</text>
<polygon fill="none" stroke="#000000" points="1524.5,-926 1524.5,-948 1617.5,-948 1617.5,-926 1524.5,-926"/>
<text text-anchor="start" x="1529.5" y="-934" font-family="Times,serif" font-size="10.00" fill="#000000">createdAt: DATE</text>
<polygon fill="none" stroke="#000000" points="1524.5,-904 1524.5,-926 1617.5,-926 1617.5,-904 1524.5,-904"/>
<text text-anchor="start" x="1529.5" y="-912" font-family="Times,serif" font-size="10.00" fill="#000000">updatedAt: DATE</text>
<polygon fill="none" stroke="#000000" points="1524.5,-882 1524.5,-904 1617.5,-904 1617.5,-882 1524.5,-882"/>
<text text-anchor="start" x="1529.2065" y="-891" font-family="Times,serif" font-style="italic" text-decoration="underline" font-size="10.00" fill="#000000">ScreenId</text>
<text text-anchor="start" x="1564.7405" y="-891" font-family="Times,serif" font-size="10.00" fill="#000000">: NUMBER</text>
</g>
<!-- Seat&#45;&gt;Screen -->
<g id="edge6" class="edge">
<title>Seat&#45;&gt;Screen</title>
<path fill="none" stroke="#000000" stroke-width=".75" d="M1623.5353,-959C1658.3973,-959 1703.6449,-959 1737.4506,-959"/>
<polygon fill="#000000" stroke="#000000" stroke-width=".75" points="1623.1518,-959.0001 1617.1518,-956.3 1620.1518,-959 1617.1518,-959 1617.1518,-959 1617.1518,-959 1620.1518,-959 1617.1518,-961.7 1623.1518,-959.0001 1623.1518,-959.0001"/>
</g>
</g>
</svg>
